# xmcd
#
# Track frame offsets: 
#        182
#        14462
#        29072
#        44355
#        63920
#        78370
#        94547
#        105437
#        116982
#        132375
#
# Disc length: 1919 seconds
#
# Revision: 6
# Processed by: cddbd v1.5.2PL0 Copyright (c) Steve Scherf et al.
# Submitted via: ExactAudioCopy v1.0b1
#
DISCID=81077d0a
DTITLE=Eddie Rabbitt - All Time Greatest Hits
DYEAR=1991
DGENRE=Country
TTITLE0=I Love A Rainy Night
TTITLE1=Drivin' My Life Away
TTITLE2=Gone Too Far
TTITLE3=Suspicions
TTITLE4=I Can't Help Myself (Here Comes That Feelin')
TTITLE5=Rocky Mountain Music
TTITLE6=Two Dollars In The Jukebox
TTITLE7=Do You Right Tonight
TTITLE8=Pour Me Another Tequila
TTITLE9=Hearts On Fire
EXTD=YEAR: 1991
EXTT0=
EXTT1=
EXTT2=
EXTT3=
EXTT4=
EXTT5=
EXTT6=
EXTT7=
EXTT8=
EXTT9=
PLAYORDER=
